<?xml version="1.0" encoding="utf-8"?>
<!-- Generator: Adobe Illustrator 20.1.0, SVG Export Plug-In . SVG Version: 6.00 Build 0)  -->
<svg version="1.1" id="Layer_1" xmlns="http://www.w3.org/2000/svg" xmlns:xlink="http://www.w3.org/1999/xlink" x="0px" y="0px"
	 viewBox="0 0 1717 504" style="enable-background:new 0 0 1717 504;" xml:space="preserve">
<style type="text/css">
	.st0{fill:#A8AAAD;}
	.st1{fill:#AAE0F4;}
	.st2{fill:#BDD749;}
	.st3{fill:none;stroke:#A8AAAD;stroke-width:1.3486;stroke-miterlimit:10;}
	.st4{fill:#6BCEF6;}
	.st5{fill:none;stroke:#818181;stroke-miterlimit:10;}
</style>
<g>
	<g>
		<path class="st0" d="M614.8,483.7c-1.2-8.3-2.2-18.1-2.2-28.8c0-19.5,4.5-33.4,13.1-42.6c8.6-9.4,20.7-14.8,37.7-14.8
			c17.1,0,31.2,5.3,40.8,15.1c9.8,9.8,15.1,26,15.1,46.5c0,9.7-0.5,17.8-1.2,24.6H614.8z M707.7,470.2c0.6-3.4,0.8-8.4,0.8-13.7
			c0-29-16.2-44.7-44.6-44.7c-24.8-0.2-40.5,13.9-40.5,42.6c0,7,0.6,12.3,1.4,15.9H707.7z"/>
		<path class="st0" d="M683.2,372.1c18.5-0.3,26.2-12.2,26.2-25.9c0-9.8-1.7-15.7-3.9-20.9l9.8-2.3c2.2,4.8,4.7,13.1,4.7,25.1
			c0,23.2-15.3,37.1-38,37.1c-22.8,0-40.7-13.4-40.7-35.4c0-24.6,21.7-31.2,35.5-31.2c2.8,0,5,0.3,6.4,0.5V372.1z M673.4,331.9
			c-8.7-0.2-22.3,3.6-22.3,19c0,13.9,12.8,20,22.3,21V331.9z"/>
		<path class="st0" d="M704.4,303.6c2.6-4.1,5.5-11.2,5.5-18.1c0-10-5-14.7-11.2-14.7c-6.5,0-10.1,3.9-13.9,14
			c-4.8,13.6-12.3,20-21.4,20c-12.2,0-22.1-9.8-22.1-26c0-7.6,2.2-14.3,4.7-18.6l10,3.4c-1.9,3-4.4,8.4-4.4,15.4
			c0,8.1,4.7,12.6,10.3,12.6c6.2,0,9-4.5,12.8-14.3c5-13.1,11.5-19.8,22.8-19.8c13.3,0,22.6,10.3,22.6,28.2c0,8.3-2,15.9-5.1,21.2
			L704.4,303.6z"/>
		<path class="st0" d="M621.8,224.7c4.7-0.2,8.4,3.3,8.4,8.7c0,4.8-3.7,8.3-8.4,8.3c-4.8,0-8.6-3.6-8.6-8.6
			C613.3,227.9,617,224.7,621.8,224.7z M718.5,240H643v-13.7h75.4V240z"/>
		<path class="st0" d="M643,138.5c5.5,0.3,11.5,0.6,20.7,0.6h43.8c17.3,0,27.9,3.4,34.5,10.8c6.9,7.3,9,17.9,9,27.4
			c0,9-2.2,19-6.2,25.1l-10.4-3.4c3.1-5,5.9-12.8,5.9-22.1c0-14-7.3-24.3-26.3-24.3h-8.4v0.3c7,4.2,12.6,12.3,12.6,24
			c0,18.7-15.9,32.1-36.8,32.1c-25.6,0-40.1-16.7-40.1-34c0-13.1,6.9-20.3,13.1-23.5v-0.3l-11.4-0.6V138.5z M672.8,152.7
			c-2.3,0-4.4,0.2-6.2,0.8c-8,2.5-14.5,9.2-14.5,19.2c0,13.1,11.1,22.4,28.5,22.4c14.8,0,27.1-7.5,27.1-22.3c0-8.4-5.3-16.1-14-19
			c-2.3-0.8-5-1.1-7.3-1.1H672.8z"/>
		<path class="st0" d="M663.4,117.3c-7.8,0-14.2,0.2-20.4,0.6v-12.2l12.5-0.8v-0.3c-7.2-3.7-14.2-12.5-14.2-24.9
			c0-10.4,6.2-26.7,32.1-26.7h45.1v13.7H675c-12.2,0-22.3,4.5-22.3,17.5c0,9,6.4,16.1,14,18.4c1.7,0.6,4.1,0.9,6.4,0.9h45.4v13.7
			H663.4z"/>
	</g>
	<g>
		<path class="st1" d="M751.2,348.1v136h-17.6v-136H751.2z"/>
		<path class="st1" d="M865.7,340.8v118.1c0,8.7,0.2,18.6,0.8,25.2h-15.9l-0.8-17h-0.4c-5.4,10.9-17.4,19.2-33.3,19.2
			c-23.6,0-41.8-20-41.8-49.6c-0.2-32.5,20-52.5,43.8-52.5c14.9,0,25,7.1,29.5,14.9h0.4v-58.3H865.7z M847.9,426.2
			c0-2.2-0.2-5.2-0.8-7.5c-2.6-11.3-12.3-20.6-25.6-20.6c-18.4,0-29.3,16.1-29.3,37.7c0,19.8,9.7,36.1,28.9,36.1
			c11.9,0,22.8-7.9,26-21.2c0.6-2.4,0.8-4.8,0.8-7.7V426.2z"/>
		<path class="st1" d="M905,438.5c0.4,24,15.7,33.9,33.5,33.9c12.7,0,20.4-2.2,27-5l3,12.7c-6.3,2.8-17,6.1-32.5,6.1
			c-30.1,0-48-19.8-48-49.2s17.4-52.7,45.8-52.7c31.9,0,40.4,28.1,40.4,46c0,3.6-0.4,6.5-0.6,8.3H905z M957.1,425.8
			c0.2-11.3-4.6-28.9-24.6-28.9c-18,0-25.8,16.5-27.2,28.9H957.1z"/>
		<path class="st1" d="M1050.4,484.1l-1.4-12.3h-0.6c-5.4,7.7-15.9,14.5-29.9,14.5c-19.8,0-29.9-13.9-29.9-28.1
			c0-23.6,21-36.5,58.7-36.3v-2c0-8.1-2.2-22.6-22.2-22.6c-9.1,0-18.6,2.8-25.4,7.3l-4-11.7c8.1-5.2,19.8-8.7,32.1-8.7
			c29.9,0,37.1,20.4,37.1,40v36.5c0,8.5,0.4,16.8,1.6,23.4H1050.4z M1047.7,434.3c-19.4-0.4-41.4,3-41.4,22c0,11.5,7.7,17,16.8,17
			c12.7,0,20.8-8.1,23.6-16.3c0.6-1.8,1-3.8,1-5.7V434.3z"/>
		<path class="st1" d="M1091.1,465.9c5.2,3.4,14.5,7.1,23.4,7.1c12.9,0,19-6.5,19-14.5c0-8.5-5-13.1-18.2-18
			c-17.6-6.3-25.8-15.9-25.8-27.7c0-15.7,12.7-28.7,33.7-28.7c9.9,0,18.6,2.8,24,6.1l-4.4,12.9c-3.8-2.4-10.9-5.7-20-5.7
			c-10.5,0-16.3,6.1-16.3,13.3c0,8.1,5.9,11.7,18.6,16.5c17,6.5,25.6,14.9,25.6,29.5c0,17.2-13.3,29.3-36.5,29.3
			c-10.7,0-20.6-2.6-27.4-6.7L1091.1,465.9z"/>
	</g>
	<g>
		<path class="st2" d="M892.9,259.3V379h-15.4V259.3H892.9z"/>
		<path class="st2" d="M921.2,316.3c0-8.9-0.2-16.2-0.7-23.3h13.8l0.9,14.2h0.4c4.3-8.2,14.2-16.2,28.4-16.2
			c11.9,0,30.4,7.1,30.4,36.6V379h-15.6v-49.5c0-13.8-5.1-25.4-19.9-25.4c-10.3,0-18.3,7.3-21,16c-0.7,2-1.1,4.6-1.1,7.3V379h-15.6
			V316.3z"/>
		<path class="st2" d="M1017.6,363c4.6,3,12.8,6.2,20.6,6.2c11.4,0,16.7-5.7,16.7-12.8c0-7.5-4.4-11.5-16-15.8
			c-15.4-5.5-22.7-14-22.7-24.3c0-13.8,11.2-25.2,29.7-25.2c8.7,0,16.3,2.5,21.1,5.3l-3.9,11.4c-3.4-2.1-9.6-5-17.6-5
			c-9.2,0-14.4,5.3-14.4,11.7c0,7.1,5.1,10.3,16.3,14.6c14.9,5.7,22.5,13.1,22.5,25.9c0,15.1-11.7,25.7-32.1,25.7
			c-9.4,0-18.1-2.3-24.1-5.9L1017.6,363z"/>
		<path class="st2" d="M1090,321.1c0-11-0.4-19.9-0.7-28.1h14l0.7,14.7h0.4c6.4-10.5,16.5-16.7,30.5-16.7
			c20.8,0,36.4,17.6,36.4,43.7c0,30.9-18.8,46.2-39.1,46.2c-11.4,0-21.3-5-26.5-13.5h-0.4v46.7H1090V321.1z M1105.5,344
			c0,2.3,0.4,4.4,0.7,6.4c2.8,10.8,12.3,18.3,23.4,18.3c16.5,0,26.1-13.5,26.1-33.2c0-17.2-9.1-32-25.6-32
			c-10.7,0-20.6,7.6-23.6,19.4c-0.5,2-1.1,4.3-1.1,6.4V344z"/>
		<path class="st2" d="M1208.4,268.9c0.2,5.3-3.7,9.6-9.9,9.6c-5.5,0-9.4-4.3-9.4-9.6c0-5.5,4.1-9.8,9.8-9.8
			C1204.7,259.1,1208.4,263.4,1208.4,268.9z M1191,379V293h15.6V379H1191z"/>
		<path class="st2" d="M1232.6,319.9c0-10.1-0.2-18.8-0.7-26.8h13.7l0.5,16.9h0.7c3.9-11.5,13.3-18.8,23.8-18.8c1.8,0,3,0.2,4.4,0.5
			v14.7c-1.6-0.4-3.2-0.5-5.3-0.5c-11,0-18.8,8.3-21,20.1c-0.4,2.1-0.7,4.6-0.7,7.3V379h-15.4V319.9z"/>
		<path class="st2" d="M1337.3,379l-1.2-10.8h-0.5c-4.8,6.7-14,12.8-26.3,12.8c-17.4,0-26.3-12.3-26.3-24.7
			c0-20.8,18.5-32.1,51.7-32v-1.8c0-7.1-2-19.9-19.5-19.9c-8,0-16.3,2.5-22.4,6.4l-3.6-10.3c7.1-4.6,17.4-7.6,28.2-7.6
			c26.3,0,32.7,17.9,32.7,35.2v32.1c0,7.5,0.4,14.7,1.4,20.6H1337.3z M1335,335.1c-17-0.4-36.4,2.7-36.4,19.4
			c0,10.1,6.7,14.9,14.7,14.9c11.2,0,18.3-7.1,20.8-14.4c0.5-1.6,0.9-3.4,0.9-5V335.1z"/>
		<path class="st2" d="M1393.4,268.4V293h22.4v11.9h-22.4v46.3c0,10.7,3,16.7,11.7,16.7c4.1,0,7.1-0.5,9.1-1.1l0.7,11.7
			c-3,1.2-7.8,2.1-13.8,2.1c-7.3,0-13.1-2.3-16.9-6.6c-4.4-4.6-6-12.3-6-22.4v-46.9h-13.3V293h13.3v-20.6L1393.4,268.4z"/>
		<path class="st2" d="M1450.8,268.9c0.2,5.3-3.7,9.6-9.9,9.6c-5.5,0-9.4-4.3-9.4-9.6c0-5.5,4.1-9.8,9.8-9.8
			C1447.1,259.1,1450.8,263.4,1450.8,268.9z M1433.4,379V293h15.6V379H1433.4z"/>
		<path class="st2" d="M1552.7,335.3c0,31.8-22,45.6-42.8,45.6c-23.3,0-41.2-17-41.2-44.2c0-28.8,18.8-45.6,42.6-45.6
			C1536,291.1,1552.7,309,1552.7,335.3z M1484.5,336.2c0,18.8,10.8,33,26.1,33c14.9,0,26.1-14,26.1-33.4c0-14.6-7.3-33-25.7-33
			C1492.5,302.8,1484.5,319.9,1484.5,336.2z"/>
		<path class="st2" d="M1572.4,316.3c0-8.9-0.2-16.2-0.7-23.3h13.8l0.9,14.2h0.4c4.3-8.2,14.2-16.2,28.4-16.2
			c11.9,0,30.4,7.1,30.4,36.6V379h-15.6v-49.5c0-13.8-5.1-25.4-19.9-25.4c-10.3,0-18.3,7.3-21,16c-0.7,2-1.1,4.6-1.1,7.3V379h-15.6
			V316.3z"/>
	</g>
	<g>
		<rect x="6.4" y="305.1" class="st0" width="58.7" height="58.7"/>
		<rect x="6.4" y="305.1" class="st3" width="58.7" height="58.7"/>
		<rect x="6.4" y="366.5" class="st4" width="128.8" height="128.8"/>
		<rect x="137.7" y="444.4" class="st2" width="280.7" height="50.8"/>
		<rect x="137.7" y="214.5" class="st2" width="50.8" height="280.7"/>
	</g>
	<rect x="-22" y="12" class="st5" width="1716" height="502"/>
</g>
</svg>
