<?xml version="1.0" encoding="utf-8"?>
<!-- Generator: Adobe Illustrator 20.1.0, SVG Export Plug-In . SVG Version: 6.00 Build 0)  -->
<svg version="1.1" id="Layer_1" xmlns="http://www.w3.org/2000/svg" xmlns:xlink="http://www.w3.org/1999/xlink" x="0px" y="0px"
	 viewBox="0 0 144 72" style="enable-background:new 0 0 144 72;" xml:space="preserve">
<style type="text/css">
	.st0{fill:#6ACFF6;}
	.st1{fill:#008CC1;}
	.st2{fill:#54BAE7;}
	.st3{fill:#FFFFFF;}
</style>
<g>
	<path class="st0" d="M14.6,27.3c0-3.2-0.1-5.1-0.2-6.8c-0.1-0.8-0.8-0.9-1.7-0.9c-0.2,0-0.1-0.6,0-0.6c1.2,0.1,2.1,0.1,3.2,0
		c1.5,2.8,3.2,6.1,5.2,9.6c2.1,3.7,4.2,6.9,6.3,10.3h-1.1c-0.2,0-0.4-0.1-0.5-0.3c-1.3-2.4-3.4-6.1-5.4-9.7
		c-2.1-3.7-3.9-6.6-5.1-8.4V28c0,4.4,0.1,8.5,0.3,9.7c0.1,0.6,1,0.6,1.8,0.7c0.2,0,0.2,0.6,0,0.6c-1.6-0.1-3-0.1-4.6,0
		c-0.2,0-0.2-0.6,0-0.6c0.9-0.1,1.5-0.1,1.6-0.7c0.2-1.5,0.2-3.6,0.2-7.2C14.6,30.5,14.6,27.3,14.6,27.3z"/>
	<path class="st1" d="M28.9,27.9c0-2.9-0.1-6-0.3-7.6c-0.1-0.6-0.5-0.7-1.8-0.8c-0.2,0-0.1-0.6,0-0.6c1.5,0.1,2.9,0.1,4.6,0
		c0.2,0,0.2,0.6,0,0.6c-0.8,0-1.4,0.2-1.5,0.8c-0.1,1.2-0.3,4-0.3,6.9v11.6h-0.8c-2-3.9-4-7.5-6-10.9c-2.1-3.6-3.7-6.4-5.4-8.9h2
		c0.3,0,0.4,0.1,0.5,0.3c1,2,2.4,4.5,4.2,7.7c1.6,2.6,3.2,5.2,4.8,7.8C28.9,34.8,28.9,27.9,28.9,27.9z"/>
	<path class="st0" d="M38.5,27.3c0-3.2-0.1-6-0.2-7c-0.1-0.5-0.8-0.7-1.7-0.7c-0.2,0-0.1-0.6,0-0.6c1.3,0.1,2.1,0.1,3.1,0
		c-0.1,1.4-0.4,5-0.4,8.3v3c0,2.9,0.3,7.5,0.4,8.6c-1,0-1.9-0.1-2.9,0c-0.1,0-0.2-0.6,0-0.6c0.8,0,1.5-0.2,1.6-0.7
		c0.2-1.7,0.2-3.8,0.2-7.4L38.5,27.3L38.5,27.3z"/>
	<path class="st1" d="M41.2,27.4c0-3-0.3-6.8-0.4-8.5c1.2,0,2.4,0,3.9,0c0.2,0,0.2,0.6,0,0.6c-0.9,0-1.6,0.2-1.7,0.7
		c-0.1,1-0.2,4.5-0.2,6.9v3.1c0,2.8,0.1,6,0.2,7.3c0.1,0.5,0.8,0.7,1.7,0.7c0.2,0,0.2,0.6,0,0.6c-1.2-0.1-2.6-0.1-3.8,0
		c0.1-1.5,0.3-4.9,0.3-8.7V27.4z"/>
	<path class="st0" d="M50.2,29c0-6.1,4-9.5,7-10c0.2-0.1,0.6,0.1,0.4,0.1c-3.1,0.9-6.2,4.1-6.2,9.9c0,5.6,2.8,8.6,5.6,9.7
		c0.1,0.1-0.1,0.2-0.4,0.1C53.8,38.2,50.2,35,50.2,29z"/>
	<path class="st1" d="M62.1,39c-5.6,0-8.8-4.3-8.8-10c0-5.9,3.9-10.2,9.2-10.2c2.9,0,4.1,0.7,4.2,1.2s0.2,2.1,0.2,2.9
		c0,0.2-0.6,0.2-0.7,0c-0.4-1.8-1.1-3.5-3.9-3.5c-4,0-6.8,4.6-6.8,9.4c0,5.1,2.4,9.4,6.8,9.4c2.7,0,3.7-1.4,4.1-2.8
		c0.1-0.2,0.6-0.2,0.6,0c0,0.6-0.1,1.9-0.3,2.5C66.5,38.5,64.8,39,62.1,39L62.1,39z"/>
	<path class="st2" d="M71.9,28.9c0-5.2,2.5-9.1,5.6-9.9c0.2-0.1,0.6,0.1,0.4,0.2c-2.9,1.2-4.8,5-4.8,9.7s1.9,8.6,4.8,9.8
		c0.2,0.1-0.2,0.2-0.4,0.1C74.4,37.9,71.9,34.1,71.9,28.9z"/>
	<path class="st0" d="M77.4,19c0.2-0.1,0.6,0,0.4,0.1c-2.9,1.2-4.8,5-4.8,9.8c0,4.7,1.9,8.6,4.8,9.7c0.2,0.1-0.2,0.2-0.4,0.2
		c-3-0.9-5.6-4.7-5.6-9.9C71.9,23.7,74.4,19.8,77.4,19z"/>
	<path class="st1" d="M85.7,38.7c2.9-1.2,4.8-5.1,4.8-9.8s-1.9-8.6-4.8-9.7C85.5,19.1,85.9,19,86,19c3.8,0.7,6.5,4.6,6.5,9.9
		c0,5.4-2.8,9.2-6.5,9.9C85.9,38.9,85.6,38.7,85.7,38.7z"/>
	<path class="st0" d="M100,27.1c0-3.4-0.1-5.6-0.3-6.9c0-0.5-1-0.6-1.8-0.7c-0.2,0-0.1-0.6,0-0.6c1,0.1,2,0.1,3.1,0
		c-0.1,0.8-0.3,5-0.3,8.4v2.4c0,2.9,0.3,7.5,0.5,9.2c-1,0-2.1,0-3,0c-0.1,0-0.2-0.6,0-0.6c0.7-0.1,1.4-0.1,1.5-0.7
		c0.2-1.3,0.2-3.8,0.2-7.5v-3H100z"/>
	<path class="st1" d="M102.7,27.5c0-3.7-0.3-7.5-0.4-8.6c1.5,0.1,3,0,4,0c0.1,0,0.2,0.6,0,0.6c-0.8,0-1.8,0.2-1.8,0.7
		c-0.1,1-0.2,4.7-0.2,7.2V31c0,3.1,0.1,5.7,0.2,6.4c0.1,0.5,0.2,0.7,0.6,0.7h3.7c2.8,0,3.4-0.6,3.8-2.5c0.1-0.2,0.6-0.2,0.6,0
		c0,0.6-0.1,2-0.3,2.9c0,0.2-0.1,0.4-0.4,0.4c-2.3,0-6.1-0.1-10.2-0.1c0.1-1.3,0.3-5.6,0.3-8.7v-2.6H102.7z"/>
	<path class="st0" d="M119.6,27c0-3.4-0.1-5.5-0.3-6.8c0-0.5-1-0.6-1.8-0.7c-0.2,0-0.1-0.6,0-0.6c1,0.1,2,0.1,3.1,0
		c-0.1,0.9-0.3,5.1-0.3,8.2v2.6c0,2.7,0.3,7.1,0.5,9.1c-1.1,0-2.1,0-3,0c-0.1,0-0.2-0.6,0-0.6c0.7-0.1,1.4-0.1,1.5-0.7
		c0.2-1.3,0.2-3.9,0.2-7.6V27H119.6z"/>
	<path class="st1" d="M122.3,27.4c0-3.5-0.3-7.3-0.4-8.5c3.1,0.1,6.9,0,9.4,0c0.3,0,0.4,0.1,0.4,0.3c0.1,0.6,0.2,2.1,0.2,2.8
		c0,0.2-0.6,0.2-0.6,0c-0.4-1.9-0.8-2.4-3.5-2.4h-3.4c-0.3,0-0.4,0.1-0.4,0.5l-0.1,8l4.2-0.1c1.6,0,2.2-0.1,2.7-0.1c0.3,0,0,1-0.4,1
		c-0.3,0-1-0.1-3.4-0.1h-3.2v3.3c0,1.4,0.1,4.6,0.2,5.4c0.1,0.5,0.2,0.7,0.6,0.7h3.5c2.8,0,3.2-0.6,3.7-2.5c0.1-0.2,0.6-0.2,0.6,0
		c0,0.6-0.2,2.1-0.3,2.9c0,0.2-0.1,0.3-0.4,0.3c-2.2,0-6.6-0.1-9.8-0.1c0.1-1.3,0.3-5.5,0.3-8.6v-2.8H122.3z"/>
	<g>
		<path class="st0" d="M49.4,43.8h1.3v7.9h4.1v1.2h-5.4C49.4,52.9,49.4,43.8,49.4,43.8z"/>
		<path class="st0" d="M60.7,43.7h0.9l4.1,9.2h-1.3l-1.2-2.7h-3.9l-1.1,2.7h-1.3L60.7,43.7z M62.6,49l-1.5-3.3L59.8,49H62.6z"/>
		<path class="st0" d="M68.6,43.8h1.3v9.1h-1.3V43.8z"/>
		<path class="st0" d="M81.1,43.8h1.2v9.1h-1.1l-6.1-7v7h-1.2v-9.1H75l6.2,7.1L81.1,43.8L81.1,43.8z"/>
		<path class="st0" d="M91.1,48.4h3.1v3.9C93,52.8,91.9,53,90.8,53c-1.5,0-2.7-0.4-3.6-1.3c-0.9-0.9-1.4-2-1.4-3.3
			c0-1.4,0.5-2.5,1.4-3.4s2.1-1.4,3.5-1.4c0.5,0,1,0.1,1.5,0.2c0.5,0.1,1,0.3,1.8,0.6v1.3c-1.1-0.6-2.2-0.9-3.2-0.9s-1.8,0.3-2.5,1
			s-1,1.5-1,2.5s0.3,1.9,1,2.5c0.7,0.7,1.6,1,2.6,1c0.5,0,1.1-0.1,1.9-0.4h0.1v-1.9h-1.8C91.1,49.5,91.1,48.4,91.1,48.4z"/>
	</g>
	<g id="o_3_">
		<path class="st1" d="M81.7,39c-4.4,0-6.7-4.9-6.7-10.1s2.3-10.1,6.8-10.1c4.4,0,6.8,4.9,6.8,10.1C88.4,34.1,86.1,39,81.7,39
			L81.7,39z"/>
		<path class="st3" d="M82.2,38.1c3.4,0,5.1-4.6,5.1-9.3c0-4.6-1.7-9.3-5.1-9.3S77,24.3,77,28.9S78.7,38.1,82.2,38.1L82.2,38.1z"/>
		<path class="st0" d="M88.6,28.9c0,5-2.5,9.1-5.6,9.9c-0.2,0.1-0.6-0.1-0.4-0.2c2.9-1.2,4.6-5,4.6-9.7s-1.7-8.6-4.6-9.8
			c-0.2-0.1,0.2-0.3,0.4-0.2C86.1,19.8,88.6,23.7,88.6,28.9z"/>
	</g>
</g>
</svg>
